<svg width="120" height="124" viewBox="0 0 120 124" fill="none" xmlns="http://www.w3.org/2000/svg">
<path d="M40.1371 96.1452C40.1371 96.6291 39.5806 97.0162 38.879 97.0162C38.0806 97.0888 37.5242 96.7017 37.5242 96.1452C37.5242 95.6613 38.0806 95.2743 38.7823 95.2743C39.5081 95.2017 40.1371 95.5888 40.1371 96.1452ZM32.6129 95.0565C32.4435 95.5404 32.9274 96.0968 33.6532 96.242C34.2823 96.4839 35.0081 96.242 35.1532 95.7581C35.2984 95.2743 34.8387 94.7178 34.1129 94.5001C33.4839 94.3307 32.7823 94.5726 32.6129 95.0565ZM43.3064 94.6452C42.6048 94.8146 42.121 95.2743 42.1935 95.8307C42.2661 96.3146 42.8952 96.6291 43.621 96.4597C44.3226 96.2904 44.8064 95.8307 44.7339 95.3468C44.6613 94.8872 44.0081 94.5726 43.3064 94.6452ZM59.2258 1.93555C25.6694 1.93555 0 27.4114 0 60.9678C0 87.7984 16.8871 110.758 41.0081 118.839C44.1048 119.395 45.1935 117.484 45.1935 115.911C45.1935 114.411 45.121 106.137 45.121 101.057C45.121 101.057 28.1855 104.686 24.629 93.8468C24.629 93.8468 21.871 86.8065 17.9032 84.992C17.9032 84.992 12.3629 81.1936 18.2903 81.2662C18.2903 81.2662 24.3145 81.7501 27.629 87.5081C32.9274 96.8468 41.8064 94.1614 45.2661 92.5646C45.8226 88.6936 47.3952 86.0081 49.1371 84.4113C35.6129 82.9113 21.9677 80.9517 21.9677 57.6775C21.9677 51.0243 23.8065 47.6855 27.6774 43.4275C27.0484 41.8549 24.9919 35.371 28.3064 27.0001C33.3629 25.4275 45 33.5323 45 33.5323C49.8387 32.1775 55.0403 31.4759 60.1935 31.4759C65.3468 31.4759 70.5484 32.1775 75.3871 33.5323C75.3871 33.5323 87.0242 25.4033 92.0806 27.0001C95.3952 35.3952 93.3387 41.8549 92.7097 43.4275C96.5806 47.7097 98.9516 51.0484 98.9516 57.6775C98.9516 81.0243 84.7016 82.8872 71.1774 84.4113C73.4032 86.3226 75.2903 89.9517 75.2903 95.6372C75.2903 103.79 75.2177 113.879 75.2177 115.863C75.2177 117.436 76.3306 119.347 79.4032 118.79C103.597 110.758 120 87.7984 120 60.9678C120 27.4114 92.7823 1.93555 59.2258 1.93555ZM23.5161 85.3791C23.2016 85.621 23.2742 86.1775 23.6855 86.6372C24.0726 87.0243 24.629 87.1936 24.9435 86.8791C25.2581 86.6372 25.1855 86.0807 24.7742 85.621C24.3871 85.2339 23.8306 85.0646 23.5161 85.3791ZM20.9032 83.4194C20.7339 83.7339 20.9758 84.121 21.4597 84.363C21.8468 84.6049 22.3306 84.5323 22.5 84.1936C22.6694 83.8791 22.4274 83.492 21.9435 83.2501C21.4597 83.1049 21.0726 83.1775 20.9032 83.4194ZM28.7419 92.0323C28.3548 92.3468 28.5 93.0726 29.0564 93.5323C29.6129 94.0888 30.3145 94.1614 30.629 93.7743C30.9435 93.4597 30.7984 92.7339 30.3145 92.2743C29.7823 91.7178 29.0565 91.6452 28.7419 92.0323ZM25.9839 88.4759C25.5968 88.7178 25.5968 89.3468 25.9839 89.9033C26.371 90.4597 27.0242 90.7017 27.3387 90.4597C27.7258 90.1452 27.7258 89.5162 27.3387 88.9597C27 88.4033 26.371 88.1614 25.9839 88.4759Z" fill="#1B2021"/>
</svg>
