<svg width="240" height="240" viewBox="0 0 240 240" fill="none" xmlns="http://www.w3.org/2000/svg">
<path d="M94.6919 168.188C93.7854 168.188 92.8722 167.876 92.1271 167.242L66.4873 145.41C65.6029 144.656 65.0943 143.554 65.0943 142.391C65.0943 141.231 65.6051 140.129 66.4873 139.376L92.1271 117.543C93.792 116.124 96.2927 116.325 97.7123 117.99C99.1296 119.657 98.9306 122.158 97.2634 123.575L75.168 142.391L97.2634 161.208C98.9306 162.627 99.1296 165.128 97.7123 166.793C96.9273 167.715 95.8129 168.188 94.6919 168.188Z" fill="#1B2021"/>
<path d="M145.308 168.188C144.187 168.188 143.073 167.715 142.29 166.793C140.87 165.128 141.072 162.627 142.737 161.208L164.832 142.391L142.737 123.575C141.072 122.158 140.87 119.657 142.29 117.99C143.707 116.325 146.21 116.124 147.873 117.543L173.513 139.376C174.397 140.129 174.906 141.231 174.906 142.391C174.906 143.554 174.397 144.656 173.513 145.41L147.873 167.242C147.128 167.876 146.215 168.188 145.308 168.188V168.188Z" fill="#1B2021"/>
<path d="M110.924 184.564C110.652 184.564 110.377 184.535 110.101 184.478C107.961 184.027 106.59 181.924 107.041 179.784L123.02 103.915C123.471 101.774 125.572 100.403 127.714 100.854C129.855 101.305 131.226 103.406 130.775 105.549L114.795 181.418C114.402 183.284 112.756 184.564 110.924 184.564V184.564Z" fill="#1B2021"/>
<path d="M213.396 225.898H26.6038C11.9354 225.898 0 213.964 0 199.294V40.7547C0 26.0863 11.9354 14.1509 26.6038 14.1509H213.396C228.065 14.1509 240 26.0863 240 40.7547V199.294C240 213.964 228.065 225.898 213.396 225.898ZM26.6038 22.0754C16.3045 22.0754 7.92453 30.4554 7.92453 40.7547V199.294C7.92453 209.593 16.3045 217.973 26.6038 217.973H213.396C223.695 217.973 232.075 209.593 232.075 199.294V40.7547C232.075 30.4554 223.695 22.0754 213.396 22.0754H26.6038Z" fill="#1B2021"/>
<path d="M236.038 77.5979H3.96226C1.77329 77.5979 0 75.8246 0 73.6356C0 71.4488 1.77329 69.6733 3.96226 69.6733H236.038C238.227 69.6733 240 71.4488 240 73.6356C240 75.8246 238.227 77.5979 236.038 77.5979Z" fill="#1B2021"/>
<path d="M67.699 58.6382C60.7871 58.6382 55.1599 53.011 55.1599 46.0991C55.1599 39.1851 60.7871 33.5601 67.699 33.5601C74.6131 33.5601 80.2381 39.1851 80.2381 46.0991C80.2381 53.011 74.6131 58.6382 67.699 58.6382ZM67.699 41.4846C65.1562 41.4846 63.0845 43.5542 63.0845 46.0991C63.0845 48.6441 65.1562 50.7137 67.699 50.7137C70.244 50.7137 72.3135 48.6441 72.3135 46.0991C72.3135 43.5542 70.244 41.4846 67.699 41.4846Z" fill="#1B2021"/>
<path d="M29.1731 58.5161C22.259 58.5161 16.634 52.8911 16.634 45.9771C16.634 39.063 22.259 33.438 29.1731 33.438C36.0871 33.438 41.7121 39.063 41.7121 45.9771C41.7121 52.8911 36.0871 58.5161 29.1731 58.5161ZM29.1731 41.3625C26.6303 41.3625 24.5585 43.4343 24.5585 45.9771C24.5585 48.522 26.6303 50.5916 29.1731 50.5916C31.718 50.5916 33.7876 48.522 33.7876 45.9771C33.7876 43.4343 31.718 41.3625 29.1731 41.3625Z" fill="#1B2021"/>
<path d="M106.225 58.7576C99.3131 58.7576 93.6881 53.1326 93.6881 46.2185C93.6881 39.3066 99.3131 33.6816 106.225 33.6816C113.139 33.6816 118.764 39.3066 118.764 46.2185C118.764 53.1326 113.139 58.7576 106.225 58.7576ZM106.225 41.604C103.682 41.604 101.613 43.6735 101.613 46.2185C101.613 48.7635 103.682 50.833 106.225 50.833C108.77 50.833 110.839 48.7635 110.839 46.2185C110.839 43.6735 108.77 41.604 106.225 41.604Z" fill="#1B2021"/>
</svg>
