<svg width="120" height="138" viewBox="0 0 120 138" fill="none" xmlns="http://www.w3.org/2000/svg">
<g clip-path="url(#clip0)">
<path d="M60.0268 37.7677C42.9911 37.7677 29.25 51.5088 29.25 68.5445C29.25 85.5802 42.9911 99.3213 60.0268 99.3213C77.0625 99.3213 90.8036 85.5802 90.8036 68.5445C90.8036 51.5088 77.0625 37.7677 60.0268 37.7677ZM60.0268 88.5534C49.0179 88.5534 40.0179 79.5802 40.0179 68.5445C40.0179 57.5088 48.9911 48.5356 60.0268 48.5356C71.0625 48.5356 80.0357 57.5088 80.0357 68.5445C80.0357 79.5802 71.0357 88.5534 60.0268 88.5534ZM99.2411 36.5088C99.2411 40.4999 96.0268 43.6874 92.0625 43.6874C88.0714 43.6874 84.8839 40.4731 84.8839 36.5088C84.8839 32.5445 88.0982 29.3302 92.0625 29.3302C96.0268 29.3302 99.2411 32.5445 99.2411 36.5088ZM119.625 43.7945C119.17 34.1784 116.973 25.6606 109.929 18.6427C102.911 11.6249 94.3928 9.42843 84.7768 8.94629C74.8661 8.38379 45.1607 8.38379 35.25 8.94629C25.6607 9.40165 17.1429 11.5981 10.0982 18.6159C3.05358 25.6338 0.883937 34.1516 0.401794 43.7677C-0.160706 53.6784 -0.160706 83.3838 0.401794 93.2945C0.857151 102.911 3.05358 111.428 10.0982 118.446C17.1429 125.464 25.6339 127.661 35.25 128.143C45.1607 128.705 74.8661 128.705 84.7768 128.143C94.3928 127.687 102.911 125.491 109.929 118.446C116.946 111.428 119.143 102.911 119.625 93.2945C120.187 83.3838 120.187 53.7052 119.625 43.7945ZM106.821 103.928C104.732 109.178 100.687 113.223 95.4107 115.339C87.5089 118.473 68.7589 117.75 60.0268 117.75C51.2946 117.75 32.5179 118.446 24.6429 115.339C19.3929 113.25 15.3482 109.205 13.2321 103.928C10.0982 96.0266 10.8214 77.2766 10.8214 68.5445C10.8214 59.8124 10.125 41.0356 13.2321 33.1606C15.3214 27.9106 19.3661 23.8659 24.6429 21.7499C32.5446 18.6159 51.2946 19.3391 60.0268 19.3391C68.7589 19.3391 87.5357 18.6427 95.4107 21.7499C100.661 23.8391 104.705 27.8838 106.821 33.1606C109.955 41.0624 109.232 59.8124 109.232 68.5445C109.232 77.2766 109.955 96.0534 106.821 103.928Z" fill="#C13584"/>
</g>
<defs>
<clipPath id="clip0">
<rect width="120" height="137.143" fill="white"/>
</clipPath>
</defs>
</svg>
