<svg width="40" height="54" viewBox="0 0 40 54" fill="none" xmlns="http://www.w3.org/2000/svg">
<g clip-path="url(#clip0)">
<path d="M17.9446 52.2573C2.80938 30.3157 0 28.0639 0 20C0 8.95427 8.95427 0 20 0C31.0457 0 40 8.95427 40 20C40 28.0639 37.1906 30.3157 22.0554 52.2573C21.0622 53.6921 18.9377 53.692 17.9446 52.2573ZM20 28.3333C24.6024 28.3333 28.3333 24.6024 28.3333 20C28.3333 15.3976 24.6024 11.6667 20 11.6667C15.3976 11.6667 11.6667 15.3976 11.6667 20C11.6667 24.6024 15.3976 28.3333 20 28.3333Z" fill="#333"/>
</g>
<defs>
<clipPath id="clip0">
<rect width="40" height="53.3333" fill="white"/>
</clipPath>
</defs>
</svg>
