<svg width="40" height="40" viewBox="0 0 40 40" fill="none" xmlns="http://www.w3.org/2000/svg">
<path d="M39.2422 14.9062C39.5469 14.6641 40 14.8906 40 15.2734V31.25C40 33.3203 38.3203 35 36.25 35H3.75C1.67969 35 0 33.3203 0 31.25V15.2812C0 14.8906 0.445312 14.6719 0.757812 14.9141C2.50781 16.2734 4.82812 18 12.7969 23.7891C14.4453 24.9922 17.2266 27.5234 20 27.5078C22.7891 27.5312 25.625 24.9453 27.2109 23.7891C35.1797 18 37.4922 16.2656 39.2422 14.9062ZM20 25C21.8125 25.0312 24.4219 22.7188 25.7344 21.7656C36.1016 14.2422 36.8906 13.5859 39.2812 11.7109C39.7344 11.3594 40 10.8125 40 10.2344V8.75C40 6.67969 38.3203 5 36.25 5H3.75C1.67969 5 0 6.67969 0 8.75V10.2344C0 10.8125 0.265625 11.3516 0.71875 11.7109C3.10938 13.5781 3.89844 14.2422 14.2656 21.7656C15.5781 22.7188 18.1875 25.0312 20 25Z" fill="#333"/>
</svg>
