<svg width="240" height="240" viewBox="0 0 240 240" fill="none" xmlns="http://www.w3.org/2000/svg">
<path d="M11.25 232.5H127.5C130.484 232.5 133.345 231.315 135.455 229.205C137.565 227.095 138.75 224.234 138.75 221.25V217.5H210C211.989 217.5 213.897 216.71 215.303 215.303C216.71 213.897 217.5 211.989 217.5 210V37.5C217.5 35.5109 216.71 33.6032 215.303 32.1967C213.897 30.7902 211.989 30 210 30H127.5C125.511 30 123.603 30.7902 122.197 32.1967C120.79 33.6032 120 35.5109 120 37.5V172.5C118.011 172.5 116.103 171.71 114.697 170.303C113.29 168.897 112.5 166.989 112.5 165V155.625C112.5 152.144 111.117 148.806 108.656 146.344C106.194 143.883 102.856 142.5 99.375 142.5C95.894 142.5 92.5556 143.883 90.0942 146.344C87.6328 148.806 86.25 152.144 86.25 155.625V165C86.25 166.989 85.4598 168.897 84.0533 170.303C82.6468 171.71 80.7391 172.5 78.75 172.5H11.25C10.2554 172.5 9.30161 172.895 8.59835 173.598C7.89509 174.302 7.5 175.255 7.5 176.25V228.75C7.5 229.745 7.89509 230.698 8.59835 231.402C9.30161 232.105 10.2554 232.5 11.25 232.5ZM127.5 37.5H210V210H138.75V183.75C138.75 180.766 137.565 177.905 135.455 175.795C133.345 173.685 130.484 172.5 127.5 172.5V37.5ZM82.5 179.468C85.7105 178.639 88.5559 176.769 90.5914 174.152C92.6268 171.534 93.7376 168.316 93.75 165V155.625C93.75 154.133 94.3426 152.702 95.3975 151.648C96.4524 150.593 97.8832 150 99.375 150C100.867 150 102.298 150.593 103.352 151.648C104.407 152.702 105 154.133 105 155.625V165C105 168.978 106.58 172.794 109.393 175.607C112.206 178.42 116.022 180 120 180H127.5C128.495 180 129.448 180.395 130.152 181.098C130.855 181.802 131.25 182.755 131.25 183.75V221.25C131.25 222.245 130.855 223.198 130.152 223.902C129.448 224.605 128.495 225 127.5 225H112.5C111.505 225 110.552 224.605 109.848 223.902C109.145 223.198 108.75 222.245 108.75 221.25C108.75 220.255 109.145 219.302 109.848 218.598C110.552 217.895 111.505 217.5 112.5 217.5H120V210H112.5C111.505 210 110.552 209.605 109.848 208.902C109.145 208.198 108.75 207.245 108.75 206.25C108.75 205.255 109.145 204.302 109.848 203.598C110.552 202.895 111.505 202.5 112.5 202.5H120V195H112.5C111.505 195 110.552 194.605 109.848 193.902C109.145 193.198 108.75 192.245 108.75 191.25C108.75 190.255 109.145 189.302 109.848 188.598C110.552 187.895 111.505 187.5 112.5 187.5H120V180H112.5C110.324 179.99 108.193 180.615 106.366 181.797C104.539 182.979 103.096 184.667 102.213 186.656C101.33 188.644 101.045 190.847 101.394 192.995C101.742 195.143 102.709 197.142 104.175 198.75C102.294 200.795 101.25 203.472 101.25 206.25C101.25 209.028 102.294 211.705 104.175 213.75C102.792 215.231 101.848 217.068 101.451 219.055C101.054 221.042 101.218 223.101 101.925 225H82.5V179.468ZM60 180H75V225H60V180ZM15 180H52.5V225H15V180Z" fill="#1B2021"/>
<path d="M63.75 213.75H71.25V221.25H63.75V213.75Z" fill="#1B2021"/>
<path d="M217.5 7.5H120C116.022 7.5 112.206 9.08035 109.393 11.8934C106.58 14.7064 105 18.5218 105 22.5V135H112.5V22.5C112.5 20.5109 113.29 18.6032 114.697 17.1967C116.103 15.7902 118.011 15 120 15H217.5C219.489 15 221.397 15.7902 222.803 17.1967C224.21 18.6032 225 20.5109 225 22.5V217.5C225 219.489 224.21 221.397 222.803 222.803C221.397 224.21 219.489 225 217.5 225H146.25V232.5H217.5C221.478 232.5 225.294 230.92 228.107 228.107C230.92 225.294 232.5 221.478 232.5 217.5V22.5C232.5 18.5218 230.92 14.7064 228.107 11.8934C225.294 9.08035 221.478 7.5 217.5 7.5Z" fill="#1B2021"/>
<path d="M75 97.5H82.5V105H75V97.5Z" fill="#1B2021"/>
<path d="M82.5 105H90V112.5H82.5V105Z" fill="#1B2021"/>
<path d="M75 112.5H82.5V120H75V112.5Z" fill="#1B2021"/>
<path d="M67.5 105H75V112.5H67.5V105Z" fill="#1B2021"/>
<path d="M52.5 127.5H60V135H52.5V127.5Z" fill="#1B2021"/>
<path d="M60 135H67.5V142.5H60V135Z" fill="#1B2021"/>
<path d="M52.5 142.5H60V150H52.5V142.5Z" fill="#1B2021"/>
<path d="M45 135H52.5V142.5H45V135Z" fill="#1B2021"/>
<path d="M78.75 131.25H86.25V138.75H78.75V131.25Z" fill="#1B2021"/>
<path d="M52.5 86.25H60V93.75H52.5V86.25Z" fill="#1B2021"/>
<path d="M168.75 157.5C176.167 157.5 183.417 155.301 189.584 151.18C195.751 147.06 200.557 141.203 203.395 134.351C206.234 127.498 206.976 119.958 205.529 112.684C204.083 105.41 200.511 98.728 195.267 93.4835C190.022 88.239 183.34 84.6675 176.066 83.2206C168.792 81.7736 161.252 82.5162 154.399 85.3545C147.547 88.1928 141.69 92.9993 137.57 99.1661C133.449 105.333 131.25 112.583 131.25 120C131.261 129.942 135.215 139.474 142.246 146.504C149.276 153.535 158.808 157.489 168.75 157.5V157.5ZM168.75 90C174.683 90 180.484 91.7595 185.417 95.0559C190.351 98.3524 194.196 103.038 196.466 108.52C198.737 114.001 199.331 120.033 198.174 125.853C197.016 131.672 194.159 137.018 189.963 141.213C185.768 145.409 180.422 148.266 174.603 149.424C168.783 150.581 162.751 149.987 157.27 147.716C151.788 145.446 147.102 141.601 143.806 136.667C140.509 131.734 138.75 125.933 138.75 120C138.759 112.046 141.923 104.421 147.547 98.7967C153.171 93.1725 160.796 90.009 168.75 90V90Z" fill="#1B2021"/>
<path d="M150 108.75H157.5V116.25H150V108.75Z" fill="#1B2021"/>
<path d="M180 108.75H187.5V116.25H180V108.75Z" fill="#1B2021"/>
<path d="M168.75 142.5C172.728 142.5 176.544 140.92 179.357 138.107C182.17 135.294 183.75 131.478 183.75 127.5H176.25C176.25 129.489 175.46 131.397 174.053 132.803C172.647 134.21 170.739 135 168.75 135C166.761 135 164.853 134.21 163.447 132.803C162.04 131.397 161.25 129.489 161.25 127.5H153.75C153.75 131.478 155.33 135.294 158.143 138.107C160.956 140.92 164.772 142.5 168.75 142.5Z" fill="#1B2021"/>
<path d="M165 18.75H172.5V26.25H165V18.75Z" fill="#1B2021"/>
</svg>
