<svg width="240" height="240" viewBox="0 0 240 240" fill="none" xmlns="http://www.w3.org/2000/svg">
<path d="M45 213.75H18.75C17.7554 213.75 16.8016 214.145 16.0984 214.848C15.3951 215.552 15 216.505 15 217.5C15 218.495 15.3951 219.448 16.0984 220.152C16.8016 220.855 17.7554 221.25 18.75 221.25H45C45.9946 221.25 46.9484 220.855 47.6516 220.152C48.3549 219.448 48.75 218.495 48.75 217.5C48.75 216.505 48.3549 215.552 47.6516 214.848C46.9484 214.145 45.9946 213.75 45 213.75Z" fill="#1B2021"/>
<path d="M60 213.75H56.25C55.2554 213.75 54.3016 214.145 53.5984 214.848C52.8951 215.552 52.5 216.505 52.5 217.5C52.5 218.495 52.8951 219.448 53.5984 220.152C54.3016 220.855 55.2554 221.25 56.25 221.25H60C60.9946 221.25 61.9484 220.855 62.6517 220.152C63.3549 219.448 63.75 218.495 63.75 217.5C63.75 216.505 63.3549 215.552 62.6517 214.848C61.9484 214.145 60.9946 213.75 60 213.75Z" fill="#1B2021"/>
<path d="M221.25 3.75H78.75C74.7731 3.75447 70.9604 5.33625 68.1483 8.14833C65.3363 10.9604 63.7545 14.7731 63.75 18.75V71.25H41.25C35.2846 71.2563 29.5653 73.6289 25.3471 77.8471C21.1289 82.0653 18.7563 87.7846 18.75 93.75V202.5H7.5C6.50544 202.5 5.55161 202.895 4.84835 203.598C4.14509 204.302 3.75 205.255 3.75 206.25V217.5C3.75447 221.477 5.33625 225.29 8.14833 228.102C10.9604 230.914 14.7731 232.496 18.75 232.5H213.75C217.727 232.496 221.54 230.914 224.352 228.102C227.164 225.29 228.746 221.477 228.75 217.5V206.25C228.75 205.255 228.355 204.302 227.652 203.598C226.948 202.895 225.995 202.5 225 202.5H213.75V157.5H221.25C225.227 157.496 229.04 155.914 231.852 153.102C234.664 150.29 236.246 146.477 236.25 142.5V18.75C236.246 14.7731 234.664 10.9604 231.852 8.14833C229.04 5.33625 225.227 3.75447 221.25 3.75V3.75ZM78.75 157.5H191.25V191.25H41.25V93.75H63.75V142.5C63.7545 146.477 65.3363 150.29 68.1483 153.102C70.9604 155.914 74.7731 157.496 78.75 157.5V157.5ZM26.25 93.75C26.2545 89.7731 27.8363 85.9604 30.6483 83.1483C33.4604 80.3363 37.2731 78.7545 41.25 78.75H63.75V86.25H37.5C36.5054 86.25 35.5516 86.6451 34.8484 87.3483C34.1451 88.0516 33.75 89.0054 33.75 90V195C33.75 195.995 34.1451 196.948 34.8484 197.652C35.5516 198.355 36.5054 198.75 37.5 198.75H195C195.995 198.75 196.948 198.355 197.652 197.652C198.355 196.948 198.75 195.995 198.75 195V157.5H206.25V202.5H26.25V93.75ZM126.047 210L124.795 213.75H107.705L106.453 210H126.047ZM221.25 210V217.5C221.247 219.488 220.456 221.394 219.05 222.8C217.644 224.206 215.738 224.997 213.75 225H18.75C16.7617 224.997 14.8555 224.206 13.4496 222.8C12.0436 221.394 11.2526 219.488 11.25 217.5V210H98.5453L101.442 218.686C101.691 219.433 102.169 220.082 102.807 220.542C103.446 221.002 104.213 221.25 105 221.25H127.5C128.287 221.25 129.054 221.002 129.693 220.542C130.331 220.082 130.809 219.433 131.058 218.686L133.955 210H221.25ZM228.75 142.5C228.747 144.488 227.956 146.394 226.55 147.8C225.144 149.206 223.238 149.997 221.25 150H78.75C76.7617 149.997 74.8555 149.206 73.4496 147.8C72.0436 146.394 71.2526 144.488 71.25 142.5V33.75H228.75V142.5ZM228.75 26.25H71.25V18.75C71.2526 16.7617 72.0436 14.8555 73.4496 13.4496C74.8555 12.0436 76.7617 11.2526 78.75 11.25H221.25C223.238 11.2526 225.144 12.0436 226.55 13.4496C227.956 14.8555 228.747 16.7617 228.75 18.75V26.25Z" fill="#1B2021"/>
<path d="M78.75 22.5C80.8211 22.5 82.5 20.8211 82.5 18.75C82.5 16.6789 80.8211 15 78.75 15C76.6789 15 75 16.6789 75 18.75C75 20.8211 76.6789 22.5 78.75 22.5Z" fill="#1B2021"/>
<path d="M90 22.5C92.0711 22.5 93.75 20.8211 93.75 18.75C93.75 16.6789 92.0711 15 90 15C87.9289 15 86.25 16.6789 86.25 18.75C86.25 20.8211 87.9289 22.5 90 22.5Z" fill="#1B2021"/>
<path d="M101.25 22.5C103.321 22.5 105 20.8211 105 18.75C105 16.6789 103.321 15 101.25 15C99.1789 15 97.5 16.6789 97.5 18.75C97.5 20.8211 99.1789 22.5 101.25 22.5Z" fill="#1B2021"/>
<path d="M157.5 41.25H82.5C81.5054 41.25 80.5516 41.6451 79.8483 42.3484C79.1451 43.0516 78.75 44.0054 78.75 45V78.75C78.75 79.7446 79.1451 80.6984 79.8483 81.4017C80.5516 82.1049 81.5054 82.5 82.5 82.5H157.5C158.495 82.5 159.448 82.1049 160.152 81.4017C160.855 80.6984 161.25 79.7446 161.25 78.75V45C161.25 44.0054 160.855 43.0516 160.152 42.3484C159.448 41.6451 158.495 41.25 157.5 41.25ZM153.75 75H86.25V48.75H153.75V75Z" fill="#1B2021"/>
<path d="M157.5 86.25H82.5C81.5054 86.25 80.5516 86.6451 79.8483 87.3483C79.1451 88.0516 78.75 89.0054 78.75 90C78.75 90.9946 79.1451 91.9484 79.8483 92.6517C80.5516 93.3549 81.5054 93.75 82.5 93.75H157.5C158.495 93.75 159.448 93.3549 160.152 92.6517C160.855 91.9484 161.25 90.9946 161.25 90C161.25 89.0054 160.855 88.0516 160.152 87.3483C159.448 86.6451 158.495 86.25 157.5 86.25Z" fill="#1B2021"/>
<path d="M157.5 97.5H82.5C81.5054 97.5 80.5516 97.8951 79.8483 98.5983C79.1451 99.3016 78.75 100.255 78.75 101.25C78.75 102.245 79.1451 103.198 79.8483 103.902C80.5516 104.605 81.5054 105 82.5 105H157.5C158.495 105 159.448 104.605 160.152 103.902C160.855 103.198 161.25 102.245 161.25 101.25C161.25 100.255 160.855 99.3016 160.152 98.5983C159.448 97.8951 158.495 97.5 157.5 97.5Z" fill="#1B2021"/>
<path d="M157.5 123.75H82.5C81.5054 123.75 80.5516 124.145 79.8483 124.848C79.1451 125.552 78.75 126.505 78.75 127.5C78.75 128.495 79.1451 129.448 79.8483 130.152C80.5516 130.855 81.5054 131.25 82.5 131.25H157.5C158.495 131.25 159.448 130.855 160.152 130.152C160.855 129.448 161.25 128.495 161.25 127.5C161.25 126.505 160.855 125.552 160.152 124.848C159.448 124.145 158.495 123.75 157.5 123.75Z" fill="#1B2021"/>
<path d="M120 135H82.5C81.5054 135 80.5516 135.395 79.8483 136.098C79.1451 136.802 78.75 137.755 78.75 138.75C78.75 139.745 79.1451 140.698 79.8483 141.402C80.5516 142.105 81.5054 142.5 82.5 142.5H120C120.995 142.5 121.948 142.105 122.652 141.402C123.355 140.698 123.75 139.745 123.75 138.75C123.75 137.755 123.355 136.802 122.652 136.098C121.948 135.395 120.995 135 120 135Z" fill="#1B2021"/>
<path d="M82.5 116.25H127.5C128.495 116.25 129.448 115.855 130.152 115.152C130.855 114.448 131.25 113.495 131.25 112.5C131.25 111.505 130.855 110.552 130.152 109.848C129.448 109.145 128.495 108.75 127.5 108.75H82.5C81.5054 108.75 80.5516 109.145 79.8483 109.848C79.1451 110.552 78.75 111.505 78.75 112.5C78.75 113.495 79.1451 114.448 79.8483 115.152C80.5516 115.855 81.5054 116.25 82.5 116.25Z" fill="#1B2021"/>
<path d="M142.5 116.25C143.495 116.25 144.448 115.855 145.152 115.152C145.855 114.448 146.25 113.495 146.25 112.5C146.25 111.505 145.855 110.552 145.152 109.848C144.448 109.145 143.495 108.75 142.5 108.75H138.75C137.755 108.75 136.802 109.145 136.098 109.848C135.395 110.552 135 111.505 135 112.5C135 113.495 135.395 114.448 136.098 115.152C136.802 115.855 137.755 116.25 138.75 116.25H142.5Z" fill="#1B2021"/>
<path d="M217.5 41.25H168.75C167.755 41.25 166.802 41.6451 166.098 42.3484C165.395 43.0516 165 44.0054 165 45V138.75C165 139.745 165.395 140.698 166.098 141.402C166.802 142.105 167.755 142.5 168.75 142.5H217.5C218.495 142.5 219.448 142.105 220.152 141.402C220.855 140.698 221.25 139.745 221.25 138.75V45C221.25 44.0054 220.855 43.0516 220.152 42.3484C219.448 41.6451 218.495 41.25 217.5 41.25ZM213.75 135H172.5V48.75H213.75V135Z" fill="#1B2021"/>
<path d="M135 135H131.25C130.255 135 129.302 135.395 128.598 136.098C127.895 136.802 127.5 137.755 127.5 138.75C127.5 139.745 127.895 140.698 128.598 141.402C129.302 142.105 130.255 142.5 131.25 142.5H135C135.995 142.5 136.948 142.105 137.652 141.402C138.355 140.698 138.75 139.745 138.75 138.75C138.75 137.755 138.355 136.802 137.652 136.098C136.948 135.395 135.995 135 135 135Z" fill="#1B2021"/>
</svg>
