<svg width="240" height="240" viewBox="0 0 240 240" fill="none" xmlns="http://www.w3.org/2000/svg">
<g clip-path="url(#clip0)">
<path d="M195.161 52.3281L183.75 40.917L172.339 52.3281L167.036 47.0254L183.75 30.3115L200.464 47.0254L195.161 52.3281Z" fill="#1B2021"/>
<path d="M180 37.4893H187.5V78.7393H180V37.4893Z" fill="#1B2021"/>
<path d="M202.5 127.489H195V111.363C223.293 105.588 242.618 79.3268 239.714 50.5957C236.812 21.8665 212.628 0 183.75 0C154.872 0 130.688 21.8665 127.786 50.5957C124.882 79.3268 144.207 105.588 172.5 111.363V127.489H165V232.489H150V112.489H112.5V232.489H97.5V142.489H60V232.489H45V179.989H7.5V232.489H0V239.989H240V232.489H202.5V127.489ZM37.5 232.489H15V187.489H37.5V232.489ZM90 232.489H67.5V149.989H90V232.489ZM142.5 232.489H120V119.989H142.5V232.489ZM135 56.239C135 30.2197 155.433 8.78723 181.423 7.54578C207.411 6.30249 229.796 25.6897 232.278 51.5881C234.76 77.4884 216.465 100.774 190.714 104.489L187.5 104.951V127.489H180V104.951L176.786 104.489C152.851 100.935 135.099 80.4364 135 56.239ZM195 232.489H172.5V134.989H195V232.489Z" fill="#1B2021"/>
<path d="M225 56.2393C225 33.4573 206.532 14.9893 183.75 14.9893C160.968 14.9893 142.5 33.4573 142.5 56.2393C142.5 79.0212 160.968 97.4893 183.75 97.4893C206.521 97.4618 224.973 79.0103 225 56.2393ZM150 56.2393C150 37.5991 165.11 22.4893 183.75 22.4893C202.39 22.4893 217.5 37.5991 217.5 56.2393C217.5 74.8776 202.39 89.9893 183.75 89.9893C165.119 89.9673 150.02 74.8702 150 56.2393Z" fill="#1B2021"/>
<path d="M53.9667 127.489H80.3027L112.5 95.292V104.989H120V82.4893H97.5V89.9893H107.197L77.1973 119.989H51.0333L1.203 165.985L6.297 171.491L53.9667 127.489Z" fill="#1B2021"/>
<path d="M217.5 127.489H240V134.989H217.5V127.489Z" fill="#1B2021"/>
<path d="M217.5 142.489H240V149.989H217.5V142.489Z" fill="#1B2021"/>
<path d="M217.5 157.489H240V164.989H217.5V157.489Z" fill="#1B2021"/>
<path d="M217.5 172.489H240V179.989H217.5V172.489Z" fill="#1B2021"/>
<path d="M217.5 187.489H240V194.989H217.5V187.489Z" fill="#1B2021"/>
<path d="M217.5 202.489H240V209.989H217.5V202.489Z" fill="#1B2021"/>
<path d="M217.5 217.489H240V224.989H217.5V217.489Z" fill="#1B2021"/>
</g>
<defs>
<clipPath id="clip0">
<rect width="240" height="240" fill="white"/>
</clipPath>
</defs>
</svg>
