<svg width="40" height="40" viewBox="0 0 40 40" fill="none" xmlns="http://www.w3.org/2000/svg">
<g clip-path="url(#clip0)">
<path d="M38.8586 28.2649L30.1086 24.5149C29.7348 24.3556 29.3194 24.322 28.9249 24.4193C28.5303 24.5165 28.1781 24.7392 27.9211 25.054L24.0461 29.7884C17.9646 26.921 13.0705 22.0268 10.2031 15.9454L14.9375 12.0704C15.2529 11.8139 15.4761 11.4616 15.5734 11.0669C15.6706 10.6722 15.6366 10.2566 15.4766 9.88289L11.7266 1.13289C11.5509 0.73008 11.2401 0.401202 10.8479 0.202962C10.4557 0.00472277 10.0066 -0.0504535 9.57812 0.0469479L1.45312 1.92195C1.03998 2.01735 0.671363 2.24998 0.407449 2.58186C0.143535 2.91374 -9.51727e-05 3.32527 4.73141e-08 3.74929C4.73141e-08 23.7884 16.2422 39.9993 36.25 39.9993C36.6742 39.9996 37.0859 39.856 37.4179 39.5921C37.75 39.3282 37.9827 38.9594 38.0781 38.5462L39.9531 30.4212C40.0499 29.9906 39.9936 29.5397 39.7938 29.1461C39.594 28.7526 39.2633 28.441 38.8586 28.2649Z" fill="#333"/>
</g>
<defs>
<clipPath id="clip0">
<rect width="40" height="40" fill="white"/>
</clipPath>
</defs>
</svg>
