<svg width="240" height="240" viewBox="0 0 240 240" fill="none" xmlns="http://www.w3.org/2000/svg">
<path d="M210 0H58C49.1635 0 42 7.1635 42 16V152H38C35.791 152 34 153.791 34 156V160H14V168H34V224H14V232H34V236C34 238.209 35.791 240 38 240H78C80.209 240 82 238.209 82 236V232H93.068C103.926 237.251 115.828 239.986 127.888 240H172C177.389 239.979 182.286 236.869 184.596 232H210C218.837 232 226 224.837 226 216V16C226 7.1635 218.837 0 210 0ZM74 232H42V160H74V232ZM172 180C175.313 180 178 182.687 178 186C178 189.313 175.313 192 172 192H162V200H172C175.313 200 178 202.687 178 206C178 209.313 175.313 212 172 212H162V220H172C175.313 220 178 222.687 178 226C178 229.313 175.313 232 172 232H127.888C116.745 231.981 105.757 229.38 95.788 224.4C95.231 224.13 94.619 223.993 94 224H82V168H94C94.97 168 95.9065 167.647 96.636 167.008L103.812 160.732C118.859 147.634 126.077 127.695 122.9 108H123.7C130.274 107.98 136.013 112.452 137.6 118.832C140.366 129.805 139.582 141.372 135.36 151.872L135.292 152H126V160H172C175.313 160 178 162.687 178 166C178 169.313 175.313 172 172 172H162V180H172ZM218 216C218 220.418 214.418 224 210 224H185.796C185.372 220.963 183.956 218.15 181.768 216C187.291 210.642 187.425 201.822 182.068 196.299C181.969 196.198 181.87 196.098 181.768 196C187.291 190.642 187.425 181.822 182.068 176.299C181.969 176.198 181.87 176.098 181.768 176C187.302 170.616 187.424 161.765 182.039 156.231C179.403 153.521 175.78 151.995 172 152H143.784C147.714 140.7 148.256 128.496 145.344 116.892C142.875 106.957 133.949 99.9865 123.712 100H118C115.791 100 114 101.791 114 104C114 104.327 114.041 104.654 114.12 104.972C118.715 123.163 112.692 142.393 98.54 154.712L92.496 160H82V156C82 153.791 80.209 152 78 152H50V40H218V216ZM218 32H50V16C50 11.5815 53.5815 8 58 8H210C214.418 8 218 11.5815 218 16V32Z" fill="#1B2021"/>
<path d="M62 216H54V224H62V216Z" fill="#1B2021"/>
<path d="M66 16H58V24H66V16Z" fill="#1B2021"/>
<path d="M82 16H74V24H82V16Z" fill="#1B2021"/>
<path d="M98 16H90V24H98V16Z" fill="#1B2021"/>
<path d="M146 68H62V76H146V68Z" fill="#1B2021"/>
<path d="M146 84H62V92H146V84Z" fill="#1B2021"/>
<path d="M146 52H94V60H146V52Z" fill="#1B2021"/>
<path d="M86 52H78V60H86V52Z" fill="#1B2021"/>
<path d="M202 100H162C159.791 100 158 101.791 158 104V136C158 138.209 159.791 140 162 140H202C204.209 140 206 138.209 206 136V104C206 101.791 204.209 100 202 100ZM198 132H166V108H198V132Z" fill="#1B2021"/>
<path d="M202 52H162C159.791 52 158 53.791 158 56V88C158 90.209 159.791 92 162 92H202C204.209 92 206 90.209 206 88V56C206 53.791 204.209 52 202 52ZM198 84H166V60H198V84Z" fill="#1B2021"/>
<path d="M94 100H66C63.791 100 62 101.791 62 104V136C62 138.209 63.791 140 66 140H94C96.209 140 98 138.209 98 136V104C98 101.791 96.209 100 94 100ZM90 132H70V108H90V132Z" fill="#1B2021"/>
</svg>
