<svg width="120" height="120" viewBox="0 0 120 120" fill="none" xmlns="http://www.w3.org/2000/svg">
<path d="M107.665 35.5588C107.741 36.6247 107.741 37.6909 107.741 38.7568C107.741 71.2693 82.995 108.731 37.7665 108.731C23.8324 108.731 10.8884 104.696 0 97.6909C1.97977 97.9191 3.88313 97.9953 5.93906 97.9953C17.4363 97.9953 28.0202 94.1122 36.472 87.4878C25.6598 87.2593 16.5989 80.1781 13.477 70.4319C15 70.6602 16.5227 70.8125 18.1219 70.8125C20.3299 70.8125 22.5382 70.5078 24.5939 69.9751C13.3249 67.6906 4.87289 57.7923 4.87289 45.838V45.5335C8.14688 47.3609 11.9543 48.503 15.9895 48.6552C9.36516 44.2388 5.02523 36.7009 5.02523 28.1729C5.02523 23.6045 6.24328 19.4166 8.37539 15.7618C20.482 30.6856 38.6801 40.4316 59.0859 41.4978C58.7053 39.6704 58.4768 37.767 58.4768 35.8634C58.4768 22.31 69.4413 11.2695 83.0707 11.2695C90.1519 11.2695 96.5477 14.2391 101.04 19.036C106.598 17.9701 111.928 15.9141 116.649 13.097C114.822 18.8077 110.939 23.6047 105.837 26.6502C110.786 26.1174 115.583 24.7466 120 22.8432C116.65 27.7161 112.462 32.056 107.665 35.5588Z" fill="#1DA1F2"/>
</svg>
