<svg width="120" height="107" viewBox="0 0 120 107" fill="none" xmlns="http://www.w3.org/2000/svg">
<path d="M114.512 25.8503C113.203 20.9232 109.348 17.0428 104.452 15.7259C95.5794 13.333 60 13.333 60 13.333C60 13.333 24.4209 13.333 15.5478 15.7259C10.6525 17.043 6.79713 20.9232 5.48858 25.8503C3.11108 34.7809 3.11108 53.4138 3.11108 53.4138C3.11108 53.4138 3.11108 72.0467 5.48858 80.9774C6.79713 85.9045 10.6525 89.6232 15.5478 90.9401C24.4209 93.333 60 93.333 60 93.333C60 93.333 95.5792 93.333 104.452 90.9401C109.348 89.6232 113.203 85.9045 114.512 80.9774C116.889 72.0467 116.889 53.4138 116.889 53.4138C116.889 53.4138 116.889 34.7809 114.512 25.8503ZM48.3636 70.3311V36.4965L78.1009 53.4143L48.3636 70.3311Z" fill="#FF0000"/>
</svg>
